<svg width="12" height="12" viewBox="0 0 12 12" fill="none" xmlns="http://www.w3.org/2000/svg">
<path d="M1.33333 12C0.966667 12 0.652778 11.8694 0.391667 11.6083C0.130556 11.3472 0 11.0333 0 10.6667H1.33333V12ZM0 9.33333V8H1.33333V9.33333H0ZM0 6.66667V5.33333H1.33333V6.66667H0ZM0 4V2.66667H1.33333V4H0ZM0 1.33333C0 0.966667 0.130556 0.652778 0.391667 0.391667C0.652778 0.130556 0.966667 0 1.33333 0V1.33333H0ZM2.66667 12V10.6667H4V12H2.66667ZM2.66667 1.33333V0H4V1.33333H2.66667ZM5.33333 1.33333V0H6.66667V1.33333H5.33333ZM6.33333 12L5.4 11.0667L7.76667 8.7L5.4 6.33333L6.33333 5.4L8.7 7.76667L11.0667 5.4L12 6.33333L9.63333 8.7L12 11.0667L11.0667 12L8.7 9.63333L6.33333 12ZM8 1.33333V0H9.33333V1.33333H8ZM10.6667 4V2.66667H12V4H10.6667ZM10.6667 1.33333V0C11.0333 0 11.3472 0.130556 11.6083 0.391667C11.8694 0.652778 12 0.966667 12 1.33333H10.6667Z" fill="#878787"/>
</svg>
