<svg width="20" height="20" viewBox="0 0 20 20" fill="none" xmlns="http://www.w3.org/2000/svg">
<g filter="url(#filter0_i_1108_113641)">
<path d="M2 14V12.95C2 12.4722 2.24444 12.0833 2.73333 11.7833C3.22222 11.4833 3.86667 11.3333 4.66667 11.3333C4.81111 11.3333 4.95 11.3361 5.08333 11.3417C5.21667 11.3472 5.34444 11.3611 5.46667 11.3833C5.31111 11.6167 5.19444 11.8611 5.11667 12.1167C5.03889 12.3722 5 12.6389 5 12.9167V14H2ZM6 14V12.9167C6 12.5611 6.09722 12.2361 6.29167 11.9417C6.48611 11.6472 6.76111 11.3889 7.11667 11.1667C7.47222 10.9444 7.89722 10.7778 8.39167 10.6667C8.88611 10.5556 9.42222 10.5 10 10.5C10.5889 10.5 11.1306 10.5556 11.625 10.6667C12.1194 10.7778 12.5444 10.9444 12.9 11.1667C13.2556 11.3889 13.5278 11.6472 13.7167 11.9417C13.9056 12.2361 14 12.5611 14 12.9167V14H6ZM15 14V12.9167C15 12.6278 14.9639 12.3556 14.8917 12.1C14.8194 11.8444 14.7111 11.6056 14.5667 11.3833C14.6889 11.3611 14.8139 11.3472 14.9417 11.3417C15.0694 11.3361 15.2 11.3333 15.3333 11.3333C16.1333 11.3333 16.7778 11.4806 17.2667 11.775C17.7556 12.0694 18 12.4611 18 12.95V14H15ZM7.41667 12.6667H12.6C12.4889 12.4444 12.1806 12.25 11.675 12.0833C11.1694 11.9167 10.6111 11.8333 10 11.8333C9.38889 11.8333 8.83056 11.9167 8.325 12.0833C7.81944 12.25 7.51667 12.4444 7.41667 12.6667ZM4.66667 10.6667C4.3 10.6667 3.98611 10.5361 3.725 10.275C3.46389 10.0139 3.33333 9.7 3.33333 9.33333C3.33333 8.95556 3.46389 8.63889 3.725 8.38333C3.98611 8.12778 4.3 8 4.66667 8C5.04444 8 5.36111 8.12778 5.61667 8.38333C5.87222 8.63889 6 8.95556 6 9.33333C6 9.7 5.87222 10.0139 5.61667 10.275C5.36111 10.5361 5.04444 10.6667 4.66667 10.6667ZM15.3333 10.6667C14.9667 10.6667 14.6528 10.5361 14.3917 10.275C14.1306 10.0139 14 9.7 14 9.33333C14 8.95556 14.1306 8.63889 14.3917 8.38333C14.6528 8.12778 14.9667 8 15.3333 8C15.7111 8 16.0278 8.12778 16.2833 8.38333C16.5389 8.63889 16.6667 8.95556 16.6667 9.33333C16.6667 9.7 16.5389 10.0139 16.2833 10.275C16.0278 10.5361 15.7111 10.6667 15.3333 10.6667ZM10 10C9.44444 10 8.97222 9.80556 8.58333 9.41667C8.19444 9.02778 8 8.55556 8 8C8 7.43333 8.19444 6.95833 8.58333 6.575C8.97222 6.19167 9.44444 6 10 6C10.5667 6 11.0417 6.19167 11.425 6.575C11.8083 6.95833 12 7.43333 12 8C12 8.55556 11.8083 9.02778 11.425 9.41667C11.0417 9.80556 10.5667 10 10 10ZM10 8.66667C10.1889 8.66667 10.3472 8.60278 10.475 8.475C10.6028 8.34722 10.6667 8.18889 10.6667 8C10.6667 7.81111 10.6028 7.65278 10.475 7.525C10.3472 7.39722 10.1889 7.33333 10 7.33333C9.81111 7.33333 9.65278 7.39722 9.525 7.525C9.39722 7.65278 9.33333 7.81111 9.33333 8C9.33333 8.18889 9.39722 8.34722 9.525 8.475C9.65278 8.60278 9.81111 8.66667 10 8.66667Z" fill="#007AFF"/>
</g>
<defs>
<filter id="filter0_i_1108_113641" x="0" y="0" width="20" height="21" filterUnits="userSpaceOnUse" color-interpolation-filters="sRGB">
<feFlood flood-opacity="0" result="BackgroundImageFix"/>
<feBlend mode="normal" in="SourceGraphic" in2="BackgroundImageFix" result="shape"/>
<feColorMatrix in="SourceAlpha" type="matrix" values="0 0 0 0 0 0 0 0 0 0 0 0 0 0 0 0 0 0 127 0" result="hardAlpha"/>
<feOffset dy="1"/>
<feGaussianBlur stdDeviation="1"/>
<feComposite in2="hardAlpha" operator="arithmetic" k2="-1" k3="1"/>
<feColorMatrix type="matrix" values="0 0 0 0 0 0 0 0 0 0 0 0 0 0 0 0 0 0 0.25 0"/>
<feBlend mode="normal" in2="shape" result="effect1_innerShadow_1108_113641"/>
</filter>
</defs>
</svg>
