<svg width="23" height="12" viewBox="0 0 23 12" fill="none" xmlns="http://www.w3.org/2000/svg">
<path d="M0.5 11.5V10.0563C0.5 9.39931 0.836111 8.86458 1.50833 8.45208C2.18056 8.03958 3.06667 7.83333 4.16667 7.83333C4.36528 7.83333 4.55625 7.83715 4.73958 7.84479C4.92292 7.85243 5.09861 7.87153 5.26667 7.90208C5.05278 8.22292 4.89236 8.55903 4.78542 8.91042C4.67847 9.26181 4.625 9.62847 4.625 10.0104V11.5H0.5ZM6 11.5V10.0104C6 9.52153 6.13368 9.07465 6.40104 8.66979C6.6684 8.26493 7.04653 7.90972 7.53542 7.60417C8.02431 7.29861 8.60868 7.06944 9.28854 6.91667C9.9684 6.76389 10.7056 6.6875 11.5 6.6875C12.3097 6.6875 13.0545 6.76389 13.7344 6.91667C14.4142 7.06944 14.9986 7.29861 15.4875 7.60417C15.9764 7.90972 16.3507 8.26493 16.6104 8.66979C16.8701 9.07465 17 9.52153 17 10.0104V11.5H6ZM18.375 11.5V10.0104C18.375 9.61319 18.3253 9.23889 18.226 8.8875C18.1267 8.53611 17.9778 8.20764 17.7792 7.90208C17.9472 7.87153 18.1191 7.85243 18.2948 7.84479C18.4705 7.83715 18.65 7.83333 18.8333 7.83333C19.9333 7.83333 20.8194 8.03576 21.4917 8.44063C22.1639 8.84549 22.5 9.38403 22.5 10.0563V11.5H18.375ZM7.94792 9.66667H15.075C14.9222 9.36111 14.4983 9.09375 13.8031 8.86458C13.108 8.63542 12.3403 8.52083 11.5 8.52083C10.6597 8.52083 9.89201 8.63542 9.19688 8.86458C8.50174 9.09375 8.08542 9.36111 7.94792 9.66667ZM4.16667 6.91667C3.6625 6.91667 3.2309 6.73715 2.87188 6.37813C2.51285 6.0191 2.33333 5.5875 2.33333 5.08333C2.33333 4.56389 2.51285 4.12847 2.87188 3.77708C3.2309 3.42569 3.6625 3.25 4.16667 3.25C4.68611 3.25 5.12153 3.42569 5.47292 3.77708C5.82431 4.12847 6 4.56389 6 5.08333C6 5.5875 5.82431 6.0191 5.47292 6.37813C5.12153 6.73715 4.68611 6.91667 4.16667 6.91667ZM18.8333 6.91667C18.3292 6.91667 17.8976 6.73715 17.5385 6.37813C17.1795 6.0191 17 5.5875 17 5.08333C17 4.56389 17.1795 4.12847 17.5385 3.77708C17.8976 3.42569 18.3292 3.25 18.8333 3.25C19.3528 3.25 19.7882 3.42569 20.1396 3.77708C20.491 4.12847 20.6667 4.56389 20.6667 5.08333C20.6667 5.5875 20.491 6.0191 20.1396 6.37813C19.7882 6.73715 19.3528 6.91667 18.8333 6.91667ZM11.5 6C10.7361 6 10.0868 5.73264 9.55208 5.19792C9.01736 4.66319 8.75 4.01389 8.75 3.25C8.75 2.47083 9.01736 1.81771 9.55208 1.29063C10.0868 0.763542 10.7361 0.5 11.5 0.5C12.2792 0.5 12.9323 0.763542 13.4594 1.29063C13.9865 1.81771 14.25 2.47083 14.25 3.25C14.25 4.01389 13.9865 4.66319 13.4594 5.19792C12.9323 5.73264 12.2792 6 11.5 6ZM11.5 4.16667C11.7597 4.16667 11.9774 4.07882 12.1531 3.90313C12.3288 3.72743 12.4167 3.50972 12.4167 3.25C12.4167 2.99028 12.3288 2.77257 12.1531 2.59687C11.9774 2.42118 11.7597 2.33333 11.5 2.33333C11.2403 2.33333 11.0226 2.42118 10.8469 2.59687C10.6712 2.77257 10.5833 2.99028 10.5833 3.25C10.5833 3.50972 10.6712 3.72743 10.8469 3.90313C11.0226 4.07882 11.2403 4.16667 11.5 4.16667Z" fill="#007AFF"/>
</svg>
