<svg width="20" height="23" viewBox="0 0 20 23" fill="none" xmlns="http://www.w3.org/2000/svg">
<path d="M1.425 20L0 18.6L4.1 14.5C4.61667 13.9833 4.97083 13.3375 5.1625 12.5625C5.35417 11.7875 5.45 10.6 5.45 8.99997C5.45 8.0333 5.66667 7.0833 6.1 6.14997C6.53333 5.21664 7.15 4.34997 7.95 3.54997C9.46667 2.0333 11.1417 1.17497 12.975 0.97497C14.8083 0.77497 16.3167 1.2833 17.5 2.49997C18.7 3.69997 19.2 5.21664 19 7.04997C18.8 8.8833 17.95 10.55 16.45 12.05C15.65 12.85 14.7833 13.4666 13.85 13.9C12.9167 14.3333 11.9667 14.55 11 14.55C9.38333 14.55 8.2 14.6416 7.45 14.825C6.7 15.0083 6.05833 15.3666 5.525 15.9L1.425 20ZM8.3 11.65C9.08333 12.4166 10.1417 12.7 11.475 12.5C12.8083 12.3 14 11.675 15.05 10.625C16.1167 9.5583 16.7542 8.36247 16.9625 7.03747C17.1708 5.71247 16.8833 4.67497 16.1 3.92497C15.3 3.12497 14.2542 2.82497 12.9625 3.02497C11.6708 3.22497 10.4833 3.8583 9.4 4.92497C8.35 5.97497 7.7125 7.16247 7.4875 8.48747C7.2625 9.81247 7.53333 10.8666 8.3 11.65ZM16 23C14.9 23 13.9583 22.6083 13.175 21.825C12.3917 21.0416 12 20.1 12 19C12 17.9 12.3917 16.9583 13.175 16.175C13.9583 15.3916 14.9 15 16 15C17.1 15 18.0417 15.3916 18.825 16.175C19.6083 16.9583 20 17.9 20 19C20 20.1 19.6083 21.0416 18.825 21.825C18.0417 22.6083 17.1 23 16 23ZM16 21C16.55 21 17.0208 20.8041 17.4125 20.4125C17.8042 20.0208 18 19.55 18 19C18 18.45 17.8042 17.9791 17.4125 17.5875C17.0208 17.1958 16.55 17 16 17C15.45 17 14.9792 17.1958 14.5875 17.5875C14.1958 17.9791 14 18.45 14 19C14 19.55 14.1958 20.0208 14.5875 20.4125C14.9792 20.8041 15.45 21 16 21Z" fill="#007AFF"/>
</svg>
