<svg width="16" height="22" viewBox="0 0 16 22" fill="none" xmlns="http://www.w3.org/2000/svg">
<path fill-rule="evenodd" clip-rule="evenodd" d="M10.24 5.46992C10.24 3.31992 9.5 0.669922 9.5 0.669922C13.41 3.79992 16 8.60992 16 13.9999C16 18.4199 12.42 21.9999 8 21.9999C3.58 21.9999 0 18.4199 0 13.9999C0 10.6199 1.21 7.50992 3.23 5.10992L3.2 5.46992C3.2 7.52992 4.76 9.19992 6.83 9.19992C8.89 9.19992 10.24 7.52992 10.24 5.46992ZM4.49 15.8599C4.49 17.5999 5.93 18.9999 7.71 18.9999C10.36 18.9999 12.51 16.8499 12.51 14.1999C12.51 12.8099 12.31 11.4499 11.92 10.1599C10.9 11.5299 9.07 12.3799 7.3 12.7399C5.54 13.0999 4.49 14.2399 4.49 15.8599Z" fill="#007AFF"/>
</svg>
