<svg width="18" height="18" viewBox="0 0 18 18" fill="none" xmlns="http://www.w3.org/2000/svg">
<path d="M6.05 15.95L2.05 11.95C2 12.5833 1.9875 13.2417 2.0125 13.925C2.0375 14.6083 2.1 15.2167 2.2 15.75C2.58333 15.8667 3.1625 15.9417 3.9375 15.975C4.7125 16.0083 5.41667 16 6.05 15.95ZM8.45 15.55C9.43333 15.3333 10.3167 15.025 11.1 14.625C11.8833 14.225 12.5667 13.7333 13.15 13.15C13.7167 12.5833 14.2 11.9125 14.6 11.1375C15 10.3625 15.3167 9.48333 15.55 8.5L9.5 2.45C8.55 2.68333 7.69167 3.00417 6.925 3.4125C6.15833 3.82083 5.48333 4.31667 4.9 4.9C4.31667 5.48333 3.82083 6.1625 3.4125 6.9375C3.00417 7.7125 2.68333 8.58333 2.45 9.55L8.45 15.55ZM6.9 12.5L5.5 11.1L11.1 5.5L12.5 6.9L6.9 12.5ZM15.95 6.1C16.0167 5.45 16.0375 4.775 16.0125 4.075C15.9875 3.375 15.9167 2.76667 15.8 2.25C15.4167 2.11667 14.8375 2.03333 14.0625 2C13.2875 1.96667 12.5833 1.98333 11.95 2.05L15.95 6.1ZM4.75 18C3.8 18 2.93333 17.9292 2.15 17.7875C1.36667 17.6458 0.883333 17.4833 0.7 17.3C0.516667 17.1 0.354167 16.6 0.2125 15.8C0.0708333 15 0 14.1167 0 13.15C0 11.1667 0.3 9.32917 0.9 7.6375C1.5 5.94583 2.35 4.55 3.45 3.45C4.55 2.35 5.95833 1.5 7.675 0.9C9.39167 0.3 11.25 0 13.25 0C14.2167 0 15.0875 0.0708333 15.8625 0.2125C16.6375 0.354167 17.1167 0.516667 17.3 0.7C17.4833 0.9 17.6458 1.4 17.7875 2.2C17.9292 3 18 3.9 18 4.9C18 6.85 17.7 8.67083 17.1 10.3625C16.5 12.0542 15.65 13.45 14.55 14.55C13.4667 15.6333 12.0667 16.4792 10.35 17.0875C8.63333 17.6958 6.76667 18 4.75 18Z" fill="#007AFF"/>
</svg>
