<svg width="20" height="20" viewBox="0 0 20 20" fill="none" xmlns="http://www.w3.org/2000/svg">
<path d="M3.6 14.8C4.35 14.2167 4.9375 13.5083 5.3625 12.675C5.7875 11.8417 6 10.95 6 10C6 9.05 5.7875 8.15833 5.3625 7.325C4.9375 6.49167 4.35 5.78333 3.6 5.2C3.08333 5.9 2.6875 6.65833 2.4125 7.475C2.1375 8.29167 2 9.13333 2 10C2 10.8667 2.1375 11.7083 2.4125 12.525C2.6875 13.3417 3.08333 14.1 3.6 14.8ZM10 18C10.9167 18 11.8042 17.8542 12.6625 17.5625C13.5208 17.2708 14.3 16.8333 15 16.25C14.05 15.4833 13.3125 14.5542 12.7875 13.4625C12.2625 12.3708 12 11.2167 12 10C12 8.78333 12.2625 7.62917 12.7875 6.5375C13.3125 5.44583 14.05 4.51667 15 3.75C14.3 3.16667 13.5208 2.72917 12.6625 2.4375C11.8042 2.14583 10.9167 2 10 2C9.08333 2 8.19583 2.14583 7.3375 2.4375C6.47917 2.72917 5.7 3.16667 5 3.75C5.95 4.51667 6.6875 5.44583 7.2125 6.5375C7.7375 7.62917 8 8.78333 8 10C8 11.2167 7.7375 12.3708 7.2125 13.4625C6.6875 14.5542 5.95 15.4833 5 16.25C5.7 16.8333 6.47917 17.2708 7.3375 17.5625C8.19583 17.8542 9.08333 18 10 18ZM16.4 14.8C16.9167 14.1 17.3125 13.3417 17.5875 12.525C17.8625 11.7083 18 10.8667 18 10C18 9.13333 17.8625 8.29167 17.5875 7.475C17.3125 6.65833 16.9167 5.9 16.4 5.2C15.65 5.78333 15.0625 6.49167 14.6375 7.325C14.2125 8.15833 14 9.05 14 10C14 10.95 14.2125 11.8417 14.6375 12.675C15.0625 13.5083 15.65 14.2167 16.4 14.8ZM10 20C8.61667 20 7.31667 19.7375 6.1 19.2125C4.88333 18.6875 3.825 17.975 2.925 17.075C2.025 16.175 1.3125 15.1167 0.7875 13.9C0.2625 12.6833 0 11.3833 0 10C0 8.61667 0.2625 7.31667 0.7875 6.1C1.3125 4.88333 2.025 3.825 2.925 2.925C3.825 2.025 4.88333 1.3125 6.1 0.7875C7.31667 0.2625 8.61667 0 10 0C11.3833 0 12.6833 0.2625 13.9 0.7875C15.1167 1.3125 16.175 2.025 17.075 2.925C17.975 3.825 18.6875 4.88333 19.2125 6.1C19.7375 7.31667 20 8.61667 20 10C20 11.3833 19.7375 12.6833 19.2125 13.9C18.6875 15.1167 17.975 16.175 17.075 17.075C16.175 17.975 15.1167 18.6875 13.9 19.2125C12.6833 19.7375 11.3833 20 10 20Z" fill="#007AFF"/>
</svg>
