<svg width="20" height="20" viewBox="0 0 20 20" fill="none" xmlns="http://www.w3.org/2000/svg">
<path d="M2.05 9H4.9C4.8 8.36667 4.60833 7.775 4.325 7.225C4.04167 6.675 3.68333 6.18333 3.25 5.75C2.95 6.23333 2.69583 6.74583 2.4875 7.2875C2.27917 7.82917 2.13333 8.4 2.05 9ZM15.1 9H17.95C17.8667 8.4 17.7208 7.82917 17.5125 7.2875C17.3042 6.74583 17.05 6.23333 16.75 5.75C16.3167 6.18333 15.9583 6.675 15.675 7.225C15.3917 7.775 15.2 8.36667 15.1 9ZM3.25 14.25C3.68333 13.8167 4.04167 13.325 4.325 12.775C4.60833 12.225 4.8 11.6333 4.9 11H2.05C2.13333 11.6 2.27917 12.1708 2.4875 12.7125C2.69583 13.2542 2.95 13.7667 3.25 14.25ZM16.75 14.25C17.05 13.7667 17.3042 13.2542 17.5125 12.7125C17.7208 12.1708 17.8667 11.6 17.95 11H15.1C15.2 11.6333 15.3917 12.225 15.675 12.775C15.9583 13.325 16.3167 13.8167 16.75 14.25ZM6.95 9H9V2.05C8.11667 2.18333 7.29583 2.42917 6.5375 2.7875C5.77917 3.14583 5.1 3.61667 4.5 4.2C5.15 4.83333 5.6875 5.55417 6.1125 6.3625C6.5375 7.17083 6.81667 8.05 6.95 9ZM11 9H13.05C13.1833 8.05 13.4625 7.17083 13.8875 6.3625C14.3125 5.55417 14.85 4.83333 15.5 4.2C14.9 3.61667 14.2208 3.14583 13.4625 2.7875C12.7042 2.42917 11.8833 2.18333 11 2.05V9ZM9 17.95V11H6.95C6.81667 11.95 6.5375 12.8292 6.1125 13.6375C5.6875 14.4458 5.15 15.1667 4.5 15.8C5.1 16.3833 5.77917 16.8542 6.5375 17.2125C7.29583 17.5708 8.11667 17.8167 9 17.95ZM11 17.95C11.8833 17.8167 12.7042 17.5708 13.4625 17.2125C14.2208 16.8542 14.9 16.3833 15.5 15.8C14.85 15.1667 14.3125 14.4458 13.8875 13.6375C13.4625 12.8292 13.1833 11.95 13.05 11H11V17.95ZM10 20C8.61667 20 7.31667 19.7375 6.1 19.2125C4.88333 18.6875 3.825 17.975 2.925 17.075C2.025 16.175 1.3125 15.1167 0.7875 13.9C0.2625 12.6833 0 11.3833 0 10C0 8.61667 0.2625 7.31667 0.7875 6.1C1.3125 4.88333 2.025 3.825 2.925 2.925C3.825 2.025 4.88333 1.3125 6.1 0.7875C7.31667 0.2625 8.61667 0 10 0C11.3833 0 12.6833 0.2625 13.9 0.7875C15.1167 1.3125 16.175 2.025 17.075 2.925C17.975 3.825 18.6875 4.88333 19.2125 6.1C19.7375 7.31667 20 8.61667 20 10C20 11.3833 19.7375 12.6833 19.2125 13.9C18.6875 15.1167 17.975 16.175 17.075 17.075C16.175 17.975 15.1167 18.6875 13.9 19.2125C12.6833 19.7375 11.3833 20 10 20Z" fill="#616161"/>
</svg>
