<svg width="20" height="20" viewBox="0 0 20 20" fill="none" xmlns="http://www.w3.org/2000/svg">
<path d="M13 12.2L10.2 15C10 15.2 9.76667 15.3 9.5 15.3C9.23333 15.3 9 15.2 8.8 15L0.3 6.5C0.1 6.3 0 6.075 0 5.825C0 5.575 0.1 5.35 0.3 5.15L3.1 2.35C3.3 2.15 3.54167 2.05 3.825 2.05C4.10833 2.05 4.35 2.15 4.55 2.35L13 10.8C13.2 11 13.3 11.2333 13.3 11.5C13.3 11.7667 13.2 12 13 12.2ZM9.5 12.9L10.9 11.5L3.8 4.4L2.4 5.8L9.5 12.9ZM16.6 20L12.35 15.75L13.75 14.35L18 18.6L16.6 20ZM16.5 7C15.5333 7 14.7083 6.65833 14.025 5.975C13.3417 5.29167 13 4.46667 13 3.5C13 2.53333 13.3417 1.70833 14.025 1.025C14.7083 0.341667 15.5333 0 16.5 0C17.4667 0 18.2917 0.341667 18.975 1.025C19.6583 1.70833 20 2.53333 20 3.5C20 4.46667 19.6583 5.29167 18.975 5.975C18.2917 6.65833 17.4667 7 16.5 7ZM16.5 5C16.9167 5 17.2708 4.85417 17.5625 4.5625C17.8542 4.27083 18 3.91667 18 3.5C18 3.08333 17.8542 2.72917 17.5625 2.4375C17.2708 2.14583 16.9167 2 16.5 2C16.0833 2 15.7292 2.14583 15.4375 2.4375C15.1458 2.72917 15 3.08333 15 3.5C15 3.91667 15.1458 4.27083 15.4375 4.5625C15.7292 4.85417 16.0833 5 16.5 5Z" fill="#007AFF"/>
</svg>
