<svg width="20" height="20" viewBox="0 0 20 20" fill="none" xmlns="http://www.w3.org/2000/svg">
<path d="M10 20.0002C8.61667 20.0002 7.31667 19.7377 6.1 19.2127C4.88333 18.6877 3.825 17.9752 2.925 17.0752C2.025 16.1752 1.3125 15.1168 0.7875 13.9002C0.2625 12.6835 0 11.3835 0 10.0002C0 8.61682 0.2625 7.31682 0.7875 6.10015C1.3125 4.88349 2.025 3.82515 2.925 2.92515C3.825 2.02515 4.88333 1.31265 6.1 0.787653C7.31667 0.262653 8.61667 0.000152588 10 0.000152588C11.3833 0.000152588 12.6833 0.262653 13.9 0.787653C15.1167 1.31265 16.175 2.02515 17.075 2.92515C17.975 3.82515 18.6875 4.88349 19.2125 6.10015C19.7375 7.31682 20 8.61682 20 10.0002C20 11.3835 19.7375 12.6835 19.2125 13.9002C18.6875 15.1168 17.975 16.1752 17.075 17.0752C16.175 17.9752 15.1167 18.6877 13.9 19.2127C12.6833 19.7377 11.3833 20.0002 10 20.0002ZM15 7.50015L16.35 7.05015L16.75 5.70015C16.2167 4.90015 15.575 4.21265 14.825 3.63765C14.075 3.06265 13.25 2.63349 12.35 2.35015L11 3.30015V4.70015L15 7.50015ZM5 7.50015L9 4.70015V3.30015L7.65 2.35015C6.75 2.63349 5.925 3.06265 5.175 3.63765C4.425 4.21265 3.78333 4.90015 3.25 5.70015L3.65 7.05015L5 7.50015ZM3.95 15.2002L5.1 15.1002L5.85 13.7502L4.4 9.40015L3 8.90015L2 9.65015C2 10.7335 2.15 11.721 2.45 12.6127C2.75 13.5043 3.25 14.3668 3.95 15.2002ZM10 18.0002C10.4333 18.0002 10.8583 17.9668 11.275 17.9002C11.6917 17.8335 12.1 17.7335 12.5 17.6002L13.2 16.1002L12.55 15.0002H7.45L6.8 16.1002L7.5 17.6002C7.9 17.7335 8.30833 17.8335 8.725 17.9002C9.14167 17.9668 9.56667 18.0002 10 18.0002ZM7.75 13.0002H12.25L13.65 9.00015L10 6.45015L6.4 9.00015L7.75 13.0002ZM16.05 15.2002C16.75 14.3668 17.25 13.5043 17.55 12.6127C17.85 11.721 18 10.7335 18 9.65015L17 8.95015L15.6 9.40015L14.15 13.7502L14.9 15.1002L16.05 15.2002Z" fill="#616161"/>
</svg>
