<svg width="20" height="16" viewBox="0 0 20 16" fill="none" xmlns="http://www.w3.org/2000/svg">
<path d="M0 16V13C0 12.7167 0.0958333 12.4792 0.2875 12.2875C0.479167 12.0958 0.716667 12 1 12H2V16H0ZM3 16V12H7L7.85 10.05L9.45 13.55L8.6 15.45C8.51667 15.6333 8.39167 15.7708 8.225 15.8625C8.05833 15.9542 7.88333 16 7.7 16H3ZM18 16V12H19C19.2833 12 19.5208 12.0958 19.7125 12.2875C19.9042 12.4792 20 12.7167 20 13V16H18ZM17 16H12.3C12.1167 16 11.9417 15.9542 11.775 15.8625C11.6083 15.7708 11.4833 15.6333 11.4 15.45L4.35 0H7.7L10 5.2L12.3 0H15.65L11.6 8.85L13 12H17V16Z" fill="#007AFF"/>
</svg>
