<svg width="14" height="18" viewBox="0 0 14 18" fill="none" xmlns="http://www.w3.org/2000/svg">
<path d="M3 18C2.71667 18 2.47917 17.9042 2.2875 17.7125C2.09583 17.5208 2 17.2833 2 17V14H12V17C12 17.2833 11.9042 17.5208 11.7125 17.7125C11.5208 17.9042 11.2833 18 11 18H3ZM14 5V8C14 8.05 13.9833 8.11667 13.95 8.2L13.2 12C13.15 12.3 13.0125 12.5417 12.7875 12.725C12.5625 12.9083 12.3 13 12 13H2C1.7 13 1.4375 12.9083 1.2125 12.725C0.987499 12.5417 0.85 12.3 0.8 12L0.0500002 8.2C0.0166664 8.11667 0 8.05 0 8V2C0 1.45 0.195833 0.979167 0.5875 0.5875C0.979166 0.195833 1.45 0 2 0H10C10.55 0 11.0208 0.195833 11.4125 0.5875C11.8042 0.979167 12 1.45 12 2V5C12 4.71667 12.0958 4.47917 12.2875 4.2875C12.4792 4.09583 12.7167 4 13 4C13.2833 4 13.5208 4.09583 13.7125 4.2875C13.9042 4.47917 14 4.71667 14 5ZM2.65 11H11.35L12 7.6V7H10V2H2V7.6L2.65 11ZM3 7H9V4H3V7Z" fill="#007AFF"/>
</svg>
