<svg width="20" height="20" viewBox="0 0 20 20" fill="none" xmlns="http://www.w3.org/2000/svg">
<path d="M5.65 19.5C4.7 19.5 3.84167 19.425 3.075 19.275C2.30833 19.125 1.76667 18.8833 1.45 18.55C1.15 18.2333 0.916666 17.6833 0.75 16.9C0.583334 16.1167 0.5 15.2333 0.5 14.25C0.5 12.3333 0.8375 10.4958 1.5125 8.7375C2.1875 6.97917 3.11667 5.5 4.3 4.3C5.48333 3.11667 6.9625 2.1875 8.7375 1.5125C10.5125 0.8375 12.3833 0.5 14.35 0.5C15.3 0.5 16.1583 0.575 16.925 0.725C17.6917 0.875 18.2333 1.11667 18.55 1.45C18.85 1.76667 19.0833 2.31667 19.25 3.1C19.4167 3.88333 19.5 4.76667 19.5 5.75C19.5 7.66667 19.1625 9.50417 18.4875 11.2625C17.8125 13.0208 16.8833 14.5 15.7 15.7C14.5167 16.8833 13.0375 17.8125 11.2625 18.4875C9.4875 19.1625 7.61667 19.5 5.65 19.5ZM2.55 13.85C3.1 12.65 3.76667 11.4792 4.55 10.3375C5.33333 9.19583 6.2 8.13333 7.15 7.15C8.1 6.2 9.14583 5.33333 10.2875 4.55C11.4292 3.76667 12.6 3.1 13.8 2.55C12.2833 2.6 10.7958 2.9125 9.3375 3.4875C7.87917 4.0625 6.68333 4.81667 5.75 5.75C4.76667 6.7 3.99583 7.89167 3.4375 9.325C2.87917 10.7583 2.58333 12.2667 2.55 13.85ZM6.2 17.45C7.71667 17.4 9.20417 17.0875 10.6625 16.5125C12.1208 15.9375 13.3167 15.1833 14.25 14.25C15.2333 13.3 16.0042 12.1083 16.5625 10.675C17.1208 9.24167 17.4167 7.73333 17.45 6.15C16.9 7.35 16.2375 8.52083 15.4625 9.6625C14.6875 10.8042 13.8167 11.8667 12.85 12.85C11.9 13.8 10.8542 14.6667 9.7125 15.45C8.57083 16.2333 7.4 16.9 6.2 17.45ZM3.7 16.3C5.03333 15.85 6.39167 15.1833 7.775 14.3C9.15833 13.4167 10.3667 12.45 11.4 11.4C12.5 10.3167 13.4917 9.08333 14.375 7.7C15.2583 6.31667 15.9 4.98333 16.3 3.7C14.9667 4.15 13.6083 4.81667 12.225 5.7C10.8417 6.58333 9.63333 7.55 8.6 8.6C7.5 9.68333 6.50833 10.9167 5.625 12.3C4.74167 13.6833 4.1 15.0167 3.7 16.3Z" fill="#007AFF"/>
</svg>
