<svg width="20" height="23" viewBox="0 0 20 23" fill="none" xmlns="http://www.w3.org/2000/svg">
<path d="M1.425 20L0 18.6L4.1 14.5C4.61667 13.9833 4.97083 13.3375 5.1625 12.5625C5.35417 11.7875 5.45 10.6 5.45 9C5.45 8.03333 5.66667 7.08333 6.1 6.15C6.53333 5.21667 7.15 4.35 7.95 3.55C9.46667 2.03333 11.1417 1.175 12.975 0.975001C14.8083 0.775001 16.3167 1.28333 17.5 2.5C18.7 3.7 19.2 5.21667 19 7.05C18.8 8.88333 17.95 10.55 16.45 12.05C15.65 12.85 14.7833 13.4667 13.85 13.9C12.9167 14.3333 11.9667 14.55 11 14.55C9.38333 14.55 8.2 14.6417 7.45 14.825C6.7 15.0083 6.05833 15.3667 5.525 15.9L1.425 20ZM8.3 11.65C9.08333 12.4167 10.1417 12.7 11.475 12.5C12.8083 12.3 14 11.675 15.05 10.625C16.1167 9.55833 16.7542 8.3625 16.9625 7.0375C17.1708 5.7125 16.8833 4.675 16.1 3.925C15.3 3.125 14.2542 2.825 12.9625 3.025C11.6708 3.225 10.4833 3.85833 9.4 4.925C8.35 5.975 7.7125 7.1625 7.4875 8.4875C7.2625 9.8125 7.53333 10.8667 8.3 11.65ZM16 23C14.9 23 13.9583 22.6083 13.175 21.825C12.3917 21.0417 12 20.1 12 19C12 17.9 12.3917 16.9583 13.175 16.175C13.9583 15.3917 14.9 15 16 15C17.1 15 18.0417 15.3917 18.825 16.175C19.6083 16.9583 20 17.9 20 19C20 20.1 19.6083 21.0417 18.825 21.825C18.0417 22.6083 17.1 23 16 23ZM16 21C16.55 21 17.0208 20.8042 17.4125 20.4125C17.8042 20.0208 18 19.55 18 19C18 18.45 17.8042 17.9792 17.4125 17.5875C17.0208 17.1958 16.55 17 16 17C15.45 17 14.9792 17.1958 14.5875 17.5875C14.1958 17.9792 14 18.45 14 19C14 19.55 14.1958 20.0208 14.5875 20.4125C14.9792 20.8042 15.45 21 16 21Z" fill="#616161"/>
</svg>
