<svg width="24" height="24" viewBox="0 0 24 24" fill="none" xmlns="http://www.w3.org/2000/svg">
<g clip-path="url(#clip0_2347_272547)">
<path d="M12 24C18.6274 24 24 18.6274 24 12C24 5.37258 18.6274 0 12 0C5.37258 0 0 5.37258 0 12C0 18.6274 5.37258 24 12 24Z" fill="#8C9EFF"/>
<path d="M17.4547 7.90801C17.4547 7.90801 15.8938 6.68457 14.0469 6.54395L13.8828 6.87676C15.5516 7.28457 16.3156 7.87051 17.1172 8.5877C15.7391 7.88457 14.375 7.22363 12.0031 7.22363C9.63125 7.22363 8.26719 7.88457 6.88906 8.5877C7.69063 7.87051 8.6 7.21894 10.1234 6.87676L9.95938 6.54395C8.02344 6.72676 6.55156 7.90801 6.55156 7.90801C6.55156 7.90801 4.80781 10.4393 4.50781 15.408C6.26562 17.4377 8.9375 17.4518 8.9375 17.4518L9.49531 16.7064C8.54844 16.3783 7.475 15.7877 6.55156 14.7236C7.65313 15.558 9.32188 16.4299 12.0078 16.4299C14.6938 16.4299 16.3578 15.5627 17.4641 14.7236C16.5406 15.7877 15.4672 16.3783 14.5203 16.7064L15.0781 17.4518C15.0781 17.4518 17.75 17.4377 19.5078 15.408C19.1984 10.4393 17.4547 7.90801 17.4547 7.90801ZM9.78125 14.0439C9.12031 14.0439 8.58594 13.4346 8.58594 12.6799C8.58594 11.9252 9.12031 11.3158 9.78125 11.3158C10.4422 11.3158 10.9766 11.9252 10.9766 12.6799C10.9766 13.4346 10.4422 14.0439 9.78125 14.0439ZM14.2156 14.0439C13.5547 14.0439 13.0203 13.4346 13.0203 12.6799C13.0203 11.9252 13.5547 11.3158 14.2156 11.3158C14.8766 11.3158 15.4109 11.9252 15.4109 12.6799C15.4109 13.4346 14.8719 14.0439 14.2156 14.0439Z" fill="white"/>
</g>
<defs>
<clipPath id="clip0_2347_272547">
<rect width="24" height="24" fill="white"/>
</clipPath>
</defs>
</svg>
