<svg width="40" height="40" viewBox="0 0 40 40" fill="none" xmlns="http://www.w3.org/2000/svg">
<g clip-path="url(#clip0_409_34531)">
<path d="M20 40C31.0457 40 40 31.0457 40 20C40 8.9543 31.0457 0 20 0C8.9543 0 0 8.9543 0 20C0 31.0457 8.9543 40 20 40Z" fill="#8C9EFF"/>
<path d="M29.0938 13.1797C29.0938 13.1797 26.4922 11.1406 23.4141 10.9062L23.1406 11.4609C25.9219 12.1406 27.1953 13.1172 28.5312 14.3125C26.2344 13.1406 23.9609 12.0391 20.0078 12.0391C16.0547 12.0391 13.7812 13.1406 11.4844 14.3125C12.8203 13.1172 14.3359 12.0312 16.875 11.4609L16.6016 10.9062C13.375 11.2109 10.9219 13.1797 10.9219 13.1797C10.9219 13.1797 8.01562 17.3984 7.51562 25.6797C10.4453 29.0625 14.8984 29.0859 14.8984 29.0859L15.8281 27.8438C14.25 27.2969 12.4609 26.3125 10.9219 24.5391C12.7578 25.9297 15.5391 27.3828 20.0156 27.3828C24.4922 27.3828 27.2656 25.9375 29.1094 24.5391C27.5703 26.3125 25.7812 27.2969 24.2031 27.8438L25.1328 29.0859C25.1328 29.0859 29.5859 29.0625 32.5156 25.6797C32 17.3984 29.0938 13.1797 29.0938 13.1797ZM16.3047 23.4063C15.2031 23.4063 14.3125 22.3906 14.3125 21.1328C14.3125 19.875 15.2031 18.8594 16.3047 18.8594C17.4062 18.8594 18.2969 19.875 18.2969 21.1328C18.2969 22.3906 17.4062 23.4063 16.3047 23.4063ZM23.6953 23.4063C22.5937 23.4063 21.7031 22.3906 21.7031 21.1328C21.7031 19.875 22.5937 18.8594 23.6953 18.8594C24.7969 18.8594 25.6875 19.875 25.6875 21.1328C25.6875 22.3906 24.7891 23.4063 23.6953 23.4063Z" fill="white"/>
<circle cx="35" cy="5" r="5" fill="#34C759"/>
</g>
<defs>
<clipPath id="clip0_409_34531">
<rect width="40" height="40" fill="white"/>
</clipPath>
</defs>
</svg>
