<svg width="36" height="36" viewBox="0 0 36 36" fill="none" xmlns="http://www.w3.org/2000/svg">
<g clip-path="url(#clip0_2347_272563)">
<path d="M18 36C27.9072 36 36 27.8928 36 18C36 8.0928 27.8928 0 18 0C8.0928 0 0 8.1072 0 18C0 27.9072 8.1072 36 18 36Z" fill="url(#paint0_linear_2347_272563)"/>
<path d="M23.2155 21.888L28.3131 18.9504C28.5867 18.792 28.7451 18.504 28.7451 18.1872V12.312C28.7451 11.9952 28.5723 11.7072 28.3131 11.5488L23.2155 8.6112C22.9419 8.4528 22.6107 8.4528 22.3371 8.6112L17.2395 11.5488C16.9659 11.7072 16.8075 11.9952 16.8075 12.312V22.824L13.2363 24.8832L9.66506 22.824V18.7056L13.2363 16.6464L15.5979 18V15.2352L13.6827 14.1264C13.5531 14.0544 13.3947 14.0112 13.2507 14.0112C13.0923 14.0112 12.9483 14.0544 12.8187 14.1264L7.72106 17.064C7.44746 17.2224 7.28906 17.5104 7.28906 17.8272V23.7024C7.28906 24.0192 7.46186 24.3072 7.72106 24.4656L12.8187 27.4032C13.0923 27.5616 13.4235 27.5616 13.6971 27.4032L18.7947 24.4656C19.0683 24.3072 19.2267 24.0192 19.2267 23.7024V13.1904L19.2843 13.1472L22.7979 11.1168L26.3691 13.176V17.2944L22.7979 19.3536L20.4507 18V20.7648L22.3659 21.8736C22.6395 22.032 22.9707 22.032 23.2443 21.8736L23.2155 21.888Z" fill="white"/>
</g>
<defs>
<linearGradient id="paint0_linear_2347_272563" x1="-6.58416" y1="2.92337" x2="30.539" y2="25.6898" gradientUnits="userSpaceOnUse">
<stop stop-color="#A229C5"/>
<stop offset="1" stop-color="#7B3FE4"/>
</linearGradient>
<clipPath id="clip0_2347_272563">
<rect width="36" height="36" fill="white"/>
</clipPath>
</defs>
</svg>
