<svg width="16" height="17" viewBox="0 0 16 17" fill="none" xmlns="http://www.w3.org/2000/svg">
<path fill-rule="evenodd" clip-rule="evenodd" d="M8 0.5C12.4181 0.5 16 4.08192 16 8.5C16 12.9181 12.4179 16.5 8 16.5C3.58208 16.5 0 12.919 0 8.5C0 4.08096 3.58144 0.5 8 0.5Z" fill="#53AE94"/>
<path fill-rule="evenodd" clip-rule="evenodd" d="M8.98773 9.23971V9.23876C8.93221 9.24227 8.64693 9.25939 8.01173 9.25939C7.50389 9.25939 7.14661 9.24499 7.02069 9.23843V9.24003C5.06645 9.15347 3.60773 8.81315 3.60773 8.40595C3.60773 7.99875 5.06661 7.65891 7.02069 7.57219V8.90099C7.14869 8.90979 7.51477 8.93139 8.02005 8.93139C8.62693 8.93139 8.93205 8.90611 8.98805 8.90099V7.57219C10.9385 7.65907 12.3938 7.99971 12.3938 8.40547C12.3938 8.81123 10.9378 9.15203 8.98805 9.23891M8.98709 7.43427V6.24419H11.7085V4.43091H4.29797V6.24419H7.01973V7.43331C4.80773 7.53491 3.14453 7.97299 3.14453 8.49779C3.14453 9.02259 4.80853 9.46067 7.01973 9.56291V13.3749H8.98773V9.56259C11.1957 9.46067 12.8556 9.02291 12.8556 8.49859C12.8556 7.97427 11.1957 7.53651 8.98773 7.43459" fill="white"/>
</svg>
