<svg width="12" height="14" viewBox="0 0 12 14" fill="none" xmlns="http://www.w3.org/2000/svg">
<path fill-rule="evenodd" clip-rule="evenodd" d="M7.88 2.00008H10.6667C11.4 2.00008 12 2.60008 12 3.33341V12.6667C12 13.4001 11.4 14.0001 10.6667 14.0001H1.33333C0.6 14.0001 0 13.4001 0 12.6667V3.33341C0 2.60008 0.6 2.00008 1.33333 2.00008H4.12C4.4 1.22675 5.13333 0.666748 6 0.666748C6.86667 0.666748 7.6 1.22675 7.88 2.00008ZM6.66634 2.66691C6.66634 2.30024 6.36634 2.00024 5.99967 2.00024C5.63301 2.00024 5.33301 2.30024 5.33301 2.66691C5.33301 3.03358 5.63301 3.33358 5.99967 3.33358C6.36634 3.33358 6.66634 3.03358 6.66634 2.66691ZM6 4.66675C7.10667 4.66675 8 5.56008 8 6.66675C8 7.77341 7.10667 8.66675 6 8.66675C4.89333 8.66675 4 7.77341 4 6.66675C4 5.56008 4.89333 4.66675 6 4.66675ZM2 11.7334V12.6667H10V11.7334C10 10.4001 7.33333 9.66675 6 9.66675C4.66667 9.66675 2 10.4001 2 11.7334Z" fill="#878787"/>
</svg>
