<svg width="24" height="24" viewBox="0 0 24 24" fill="none" xmlns="http://www.w3.org/2000/svg">
<path fill-rule="evenodd" clip-rule="evenodd" d="M0.75 3.25V20.75C0.75 22.125 1.8625 23.25 3.25 23.25H20.75C22.125 23.25 23.25 22.125 23.25 20.75V3.25C23.25 1.875 22.125 0.75 20.75 0.75H3.25C1.8625 0.75 0.75 1.875 0.75 3.25ZM15.75 8.25C15.75 10.325 14.075 12 12 12C9.925 12 8.25 10.325 8.25 8.25C8.25 6.175 9.925 4.5 12 4.5C14.075 4.5 15.75 6.175 15.75 8.25ZM12 14.375C9.5 14.375 4.5 15.75 4.5 18.25V19.5H19.5V18.25C19.5 15.75 14.5 14.375 12 14.375Z" fill="#878787"/>
</svg>
