<svg width="30" height="30" viewBox="0 0 30 30" fill="none" xmlns="http://www.w3.org/2000/svg">
<path d="M13.6527 0.441406C18.0473 0.441406 21.7928 3.55887 22.6378 7.80828C26.886 8.65374 30 12.4022 30 16.7976C30 21.8602 25.8982 25.9643 20.8383 25.9643C19.4977 25.9643 18.1978 25.6758 17.0074 25.1268L16.9768 25.1786C15.3217 27.8784 12.3864 29.5591 9.16168 29.5591C4.10183 29.5591 0 25.455 0 20.3924C0 16.9529 1.91031 13.8553 4.88792 12.2821C4.62578 11.4241 4.49101 10.5254 4.49101 9.60807C4.49101 4.54546 8.59284 0.441406 13.6527 0.441406ZM12.5796 24.2732L12.3843 24.4372C11.7211 24.9669 10.9369 25.3271 10.0948 25.4808L9.84057 25.5206L9.84022 28.1719C11.4707 28.0313 12.9927 27.3852 14.2187 26.3402L14.4451 26.1397L12.5796 24.2732ZM5.88821 24.396L4.019 26.2661C5.1832 27.2875 6.6225 27.9425 8.17184 28.1388L8.48312 28.1719L8.48277 25.5206C7.61073 25.4061 6.7919 25.0719 6.09391 24.5561L5.88821 24.396ZM4.03618 21.0714L1.38638 21.0713C1.5114 22.5233 2.03663 23.8909 2.89118 25.0423L3.07932 25.2856L4.95952 23.4059C4.52099 22.7948 4.22041 22.0958 4.08091 21.3522L4.03618 21.0714ZM16.937 21.0713L14.2872 21.0711L14.2465 21.3306C14.1363 21.9322 13.9207 22.5053 13.6114 23.027L13.4731 23.2474L15.3611 25.1365C16.1985 24.0429 16.7337 22.7483 16.9057 21.3683L16.937 21.0713ZM18.2797 21.293L18.2402 21.6322C18.1337 22.4205 17.9258 23.1862 17.6225 23.9147C18.3202 24.2308 19.0623 24.4426 19.8295 24.5416L20.1598 24.5772L20.1594 21.9259C19.5899 21.8511 19.0417 21.6824 18.5315 21.4276L18.2797 21.293ZM24.2562 20.6784C23.554 21.2981 22.6977 21.7169 21.7715 21.886L21.5172 21.9259L21.5169 24.5772C23.1474 24.4366 24.6693 23.7904 25.8953 22.7455L26.1217 22.5449L24.2562 20.6784ZM9.16168 16.5779C7.05616 16.5779 5.34929 18.2857 5.34929 20.3924C5.34929 22.4991 7.05616 24.2068 9.16168 24.2068C11.2672 24.2068 12.974 22.4991 12.974 20.3924C12.974 18.2857 11.2672 16.5779 9.16168 16.5779ZM28.6136 17.4765L25.9639 17.4763L25.9231 17.7358C25.8129 18.3374 25.5973 18.9105 25.288 19.4322L25.1498 19.6526L27.0378 21.5417C27.8751 20.4482 28.4104 19.1535 28.5824 17.7735L28.6136 17.4765ZM18.128 20.8891L18.1327 20.8332L18.1341 20.7911L18.128 20.8891ZM22.0874 13.1925L21.9616 13.4752C21.1811 15.1511 19.9059 16.558 18.3129 17.5018L18.0285 17.6635L17.927 17.7171C18.1162 18.3384 18.239 18.9806 18.2926 19.6355C18.9853 20.2599 19.8838 20.6121 20.8383 20.6121C22.9438 20.6121 24.6507 18.9043 24.6507 16.7976C24.6507 15.2189 23.6836 13.829 22.2603 13.2572L22.0874 13.1925ZM18.1392 20.1309L18.1421 20.2855L18.1415 20.1896L18.1392 20.1309ZM18.2982 19.7076L18.1191 19.7199L18.2038 19.7949L18.3038 19.7885L18.2982 19.7076ZM18.1191 19.7199C18.1208 19.7429 18.1222 19.7649 18.1236 19.7868L18.1191 19.7199ZM15.1557 15.3913L13.2811 17.2668C13.7672 17.9071 14.0981 18.6514 14.245 19.4465L14.2872 19.7134L16.937 19.7135C16.8076 18.2103 16.2492 16.798 15.3418 15.6231L15.1557 15.3913ZM3.07927 15.4992L2.89115 15.7425C2.09766 16.8117 1.5881 18.0672 1.41926 19.4037L1.38638 19.7135L4.03613 19.7137C4.13493 18.9599 4.39764 18.2451 4.80113 17.6128L4.95901 17.3796L3.07927 15.4992ZM17.6171 17.3561L17.6515 17.4558H17.6524L17.647 17.4387L17.6171 17.3561ZM17.5959 17.297L17.6162 17.3543L17.6071 17.3255L17.5959 17.297ZM17.0706 13.4889C16.7327 13.787 16.3574 14.04 15.9542 14.2409C16.5499 14.899 17.0479 15.6402 17.4312 16.4418C17.8652 16.2013 18.2754 15.9196 18.6562 15.6011L18.9361 15.3553L17.0706 13.4889ZM8.48317 12.6128L8.17186 12.646C6.7258 12.8292 5.37559 13.4119 4.25545 14.3193L4.019 14.5186L5.88875 16.3893C6.56084 15.8374 7.36185 15.4631 8.22316 15.305L8.4833 15.2641L8.48317 12.6128ZM9.8402 12.6128L9.83998 15.2641C10.6612 15.3718 11.4356 15.6744 12.1067 16.1407L12.3266 16.3022L14.1993 14.4281C13.051 13.456 11.6484 12.8339 10.1427 12.6448L9.8402 12.6128ZM26.8323 11.7965L24.9577 13.672C25.4438 14.3123 25.7748 15.0566 25.9217 15.8518L25.9638 16.1186L28.6136 16.1187C28.4842 14.6155 27.9258 13.2033 27.0185 12.0283L26.8323 11.7965ZM21.428 10.287L18.7782 10.2867L18.7375 10.5462C18.6273 11.1478 18.4117 11.7209 18.1024 12.2427L17.9642 12.4631L19.8521 14.3522C20.6895 13.2586 21.2247 11.964 21.3967 10.5839L21.428 10.287ZM14.9465 13.2837L14.8329 13.423L14.8342 13.424L14.8491 13.4182L14.9545 13.2903L14.9465 13.2837ZM13.6527 5.79363C11.5472 5.79363 9.84033 7.50141 9.84033 9.60807C9.84033 10.1254 9.94324 10.6276 10.1395 11.0921L10.2294 11.2888L10.4217 11.3117C12.06 11.5372 13.5906 12.201 14.8702 13.2222C16.4053 12.707 17.4651 11.2607 17.4651 9.60807C17.4651 7.50141 15.7582 5.79363 13.6527 5.79363ZM22.065 12.7608L22.0491 12.8023L22.0521 12.7979L22.065 12.7608ZM22.8071 9.23952C22.812 9.36205 22.8144 9.48491 22.8144 9.60807C22.8144 10.2152 22.7553 10.8148 22.6387 11.4027L22.5619 11.754L22.5224 11.9056L22.7868 12.005C23.1353 12.1471 23.4668 12.3269 23.7758 12.5407L24.0032 12.7074L25.8759 10.8333C24.9862 10.0802 23.9392 9.53391 22.8071 9.23952ZM5.1245 12.3622L5.10463 12.3723C5.11321 12.3679 5.11886 12.3651 5.1245 12.3622ZM5.05148 12.197L5.02379 12.2118L5.10264 12.3673L5.05148 12.197ZM5.41429 12.2226C5.41109 12.224 5.40788 12.2255 5.40468 12.227L5.41429 12.2226ZM5.75872 12.0729L5.68895 12.1018L5.78207 12.0638L5.75872 12.0729ZM5.85442 12.0338L5.7997 12.0567L5.85528 12.0346L5.85442 12.0338ZM8.52719 10.2871L5.87739 10.287C5.91982 10.78 6.0084 11.2644 6.14138 11.7354C6.97449 11.4446 7.84873 11.2753 8.74391 11.2351C8.66776 11.0049 8.60783 10.7689 8.5647 10.5287L8.52719 10.2871ZM9.89117 11.4347L9.89031 11.4355L9.90175 11.4364L9.90089 11.4355L9.89117 11.4347ZM9.75395 11.4249L9.82167 11.4293H9.82412L9.75395 11.4249ZM9.43252 11.4095L9.56492 11.4144C9.52095 11.4124 9.47677 11.4108 9.43252 11.4095ZM19.6467 4.607L17.7721 6.48249C18.2582 7.12275 18.5892 7.86705 18.7361 8.6622L18.7782 8.92907L21.428 8.92915C21.2986 7.42596 20.7402 6.01371 19.8328 4.83876L19.6467 4.607ZM7.57031 4.71487C6.6691 5.83468 6.0921 7.18009 5.91027 8.61938L5.87739 8.92918L8.52717 8.92939C8.62597 8.17555 8.88868 7.46074 9.29217 6.82845L9.45002 6.59528L7.57031 4.71487ZM22.4844 7.96182L22.4841 7.96346L22.4921 8.00759L22.4844 7.96182ZM22.6611 7.92958L22.4868 7.96171L22.6138 7.9864L22.6697 7.9769L22.6611 7.92958ZM12.9742 1.82854L12.6629 1.86166C11.2168 2.04489 9.86663 2.62762 8.74649 3.53497L8.51002 3.73434L10.3798 5.60501C11.0519 5.05307 11.8529 4.67881 12.7142 4.52067L12.9743 4.47974L12.9742 1.82854ZM14.3312 1.82854L14.331 4.47974C15.1522 4.58749 15.9266 4.89006 16.5978 5.35641L16.8176 5.5179L18.6903 3.64381C17.542 2.67172 16.1394 2.04956 14.6337 1.86053L14.3312 1.82854Z" fill="#878787"/>
</svg>
