<svg width="24" height="28" viewBox="0 0 24 28" fill="none" xmlns="http://www.w3.org/2000/svg">
<path d="M0.75 27.75V7.75C0.75 7.0625 0.994792 6.47396 1.48438 5.98438C1.97396 5.49479 2.5625 5.25 3.25 5.25H15.75C16.4375 5.25 17.026 5.49479 17.5156 5.98438C18.0052 6.47396 18.25 7.0625 18.25 7.75V27.75L9.5 24L0.75 27.75ZM3.25 23.9375L9.5 21.25L15.75 23.9375V7.75H3.25V23.9375ZM20.75 24V2.75H4.5V0.25H20.75C21.4375 0.25 22.026 0.494792 22.5156 0.984375C23.0052 1.47396 23.25 2.0625 23.25 2.75V24H20.75Z" fill="#878787"/>
</svg>
