<svg width="24" height="24" viewBox="0 0 24 24" fill="none" xmlns="http://www.w3.org/2000/svg">
<path d="M6.375 19.5C6.89583 19.5 7.33854 19.3177 7.70312 18.9531C8.06771 18.5885 8.25 18.1458 8.25 17.625C8.25 17.1042 8.06771 16.6615 7.70312 16.2969C7.33854 15.9323 6.89583 15.75 6.375 15.75C5.85417 15.75 5.41146 15.9323 5.04688 16.2969C4.68229 16.6615 4.5 17.1042 4.5 17.625C4.5 18.1458 4.68229 18.5885 5.04688 18.9531C5.41146 19.3177 5.85417 19.5 6.375 19.5ZM6.375 8.25C6.89583 8.25 7.33854 8.06771 7.70312 7.70312C8.06771 7.33854 8.25 6.89583 8.25 6.375C8.25 5.85417 8.06771 5.41146 7.70312 5.04688C7.33854 4.68229 6.89583 4.5 6.375 4.5C5.85417 4.5 5.41146 4.68229 5.04688 5.04688C4.68229 5.41146 4.5 5.85417 4.5 6.375C4.5 6.89583 4.68229 7.33854 5.04688 7.70312C5.41146 8.06771 5.85417 8.25 6.375 8.25ZM12 13.875C12.5208 13.875 12.9635 13.6927 13.3281 13.3281C13.6927 12.9635 13.875 12.5208 13.875 12C13.875 11.4792 13.6927 11.0365 13.3281 10.6719C12.9635 10.3073 12.5208 10.125 12 10.125C11.4792 10.125 11.0365 10.3073 10.6719 10.6719C10.3073 11.0365 10.125 11.4792 10.125 12C10.125 12.5208 10.3073 12.9635 10.6719 13.3281C11.0365 13.6927 11.4792 13.875 12 13.875ZM17.625 19.5C18.1458 19.5 18.5885 19.3177 18.9531 18.9531C19.3177 18.5885 19.5 18.1458 19.5 17.625C19.5 17.1042 19.3177 16.6615 18.9531 16.2969C18.5885 15.9323 18.1458 15.75 17.625 15.75C17.1042 15.75 16.6615 15.9323 16.2969 16.2969C15.9323 16.6615 15.75 17.1042 15.75 17.625C15.75 18.1458 15.9323 18.5885 16.2969 18.9531C16.6615 19.3177 17.1042 19.5 17.625 19.5ZM17.625 8.25C18.1458 8.25 18.5885 8.06771 18.9531 7.70312C19.3177 7.33854 19.5 6.89583 19.5 6.375C19.5 5.85417 19.3177 5.41146 18.9531 5.04688C18.5885 4.68229 18.1458 4.5 17.625 4.5C17.1042 4.5 16.6615 4.68229 16.2969 5.04688C15.9323 5.41146 15.75 5.85417 15.75 6.375C15.75 6.89583 15.9323 7.33854 16.2969 7.70312C16.6615 8.06771 17.1042 8.25 17.625 8.25ZM3.25 23.25C2.5625 23.25 1.97396 23.0052 1.48438 22.5156C0.994792 22.026 0.75 21.4375 0.75 20.75V3.25C0.75 2.5625 0.994792 1.97396 1.48438 1.48438C1.97396 0.994792 2.5625 0.75 3.25 0.75H20.75C21.4375 0.75 22.026 0.994792 22.5156 1.48438C23.0052 1.97396 23.25 2.5625 23.25 3.25V20.75C23.25 21.4375 23.0052 22.026 22.5156 22.5156C22.026 23.0052 21.4375 23.25 20.75 23.25H3.25ZM3.25 20.75H20.75V3.25H3.25V20.75Z" fill="#878787"/>
</svg>
