<svg width="26" height="26" viewBox="0 0 26 26" fill="none" xmlns="http://www.w3.org/2000/svg">
<path fill-rule="evenodd" clip-rule="evenodd" d="M13 0.5C6.1 0.5 0.5 6.1 0.5 13C0.5 19.9 6.1 25.5 13 25.5C19.9 25.5 25.5 19.9 25.5 13C25.5 6.1 19.9 0.5 13 0.5ZM11.75 22.9125C6.8125 22.3 3 18.1 3 13C3 12.225 3.1 11.4875 3.2625 10.7625L9.25 16.75V18C9.25 19.375 10.375 20.5 11.75 20.5V22.9125ZM18 18C19.125 18 20.05 18.725 20.375 19.7375C22 17.9625 23 15.6 23 13C23 8.8125 20.4125 5.225 16.75 3.7375V4.25C16.75 5.625 15.625 6.75 14.25 6.75H11.75V9.25C11.75 9.9375 11.1875 10.5 10.5 10.5H8V13H15.5C16.1875 13 16.75 13.5625 16.75 14.25V18H18Z" fill="#878787"/>
</svg>
