<svg width="37" height="30" viewBox="0 0 37 30" fill="none" xmlns="http://www.w3.org/2000/svg">
<path d="M5.97218 13.001C5.38006 13.0065 4.8028 13.187 4.31313 13.5199C3.82346 13.8529 3.44327 14.3232 3.22047 14.8718C2.99766 15.4203 2.9422 16.0226 3.06107 16.6026C3.17994 17.1826 3.46783 17.7145 3.88847 18.1312C4.3091 18.5479 4.84368 18.8309 5.42484 18.9444C6.006 19.0579 6.60777 18.9969 7.15432 18.769C7.70087 18.5412 8.16777 18.1568 8.4962 17.6641C8.82463 17.1714 8.99989 16.5926 8.99992 16.0005C9.00285 15.6011 8.92539 15.2052 8.77217 14.8363C8.61895 14.4674 8.39309 14.1331 8.10802 13.8532C7.82296 13.5734 7.48451 13.3537 7.11281 13.2073C6.74112 13.0609 6.34377 12.9907 5.94441 13.001H5.97218Z" fill="#878787"/>
<path d="M13.9722 13.001C13.3801 13.0065 12.8028 13.187 12.3131 13.5199C11.8235 13.8529 11.4433 14.3232 11.2205 14.8718C10.9977 15.4203 10.9422 16.0226 11.0611 16.6026C11.1799 17.1826 11.4678 17.7145 11.8885 18.1312C12.3091 18.5479 12.8437 18.8309 13.4248 18.9444C14.006 19.0579 14.6078 18.9969 15.1543 18.769C15.7009 18.5412 16.1678 18.1568 16.4962 17.6641C16.8246 17.1714 16.9999 16.5926 16.9999 16.0005C17.0028 15.6011 16.9254 15.2052 16.7722 14.8363C16.6189 14.4674 16.3931 14.1331 16.108 13.8532C15.823 13.5734 15.4845 13.3537 15.1128 13.2073C14.7411 13.0609 14.3438 12.9907 13.9444 13.001H13.9722Z" fill="#878787"/>
<path d="M21.9722 13.001C21.3801 13.0065 20.8028 13.187 20.3131 13.5199C19.8235 13.8529 19.4433 14.3232 19.2205 14.8718C18.9977 15.4203 18.9422 16.0226 19.0611 16.6026C19.1799 17.1826 19.4678 17.7145 19.8885 18.1312C20.3091 18.5479 20.8437 18.8309 21.4248 18.9444C22.006 19.0579 22.6078 18.9969 23.1543 18.769C23.7009 18.5412 24.1678 18.1568 24.4962 17.6641C24.8246 17.1714 24.9999 16.5926 24.9999 16.0005C25.0028 15.6011 24.9254 15.2052 24.7722 14.8363C24.6189 14.4674 24.3931 14.1331 24.108 13.8532C23.823 13.5734 23.4845 13.3537 23.1128 13.2073C22.7411 13.0609 22.3438 12.9907 21.9444 13.001H21.9722Z" fill="#878787"/>
<rect x="23" width="14" height="14" rx="7" fill="#ED2939"/>
<path d="M27.7517 5.16C27.9917 5.16 28.225 5.14 28.4517 5.1C28.6783 5.06 28.8817 4.99333 29.0617 4.9C29.2483 4.80667 29.405 4.68667 29.5317 4.54C29.665 4.39333 29.7517 4.21333 29.7917 4H30.7217V11H29.4717V6.06H27.7517V5.16Z" fill="white"/>
</svg>
