<svg width="28" height="28" viewBox="0 0 28 28" fill="none" xmlns="http://www.w3.org/2000/svg">
<path fill-rule="evenodd" clip-rule="evenodd" d="M15.8066 13.6989H22.1296C22.9024 13.6989 23.5347 14.3312 23.5347 15.104V22.1296C23.5347 22.516 23.3801 22.8672 23.1202 23.1202L18.4974 27.75L17.7526 27.0123C17.563 26.8226 17.4435 26.5557 17.4435 26.2676L17.4646 26.0428L18.132 22.8321H13.6989C12.9261 22.8321 12.2938 22.1998 12.2938 21.427V20.0219C12.2938 19.8392 12.3289 19.6706 12.3922 19.509L14.5139 14.556C14.7246 14.0502 15.2234 13.6989 15.8066 13.6989ZM27.75 13.6989H24.9398V22.1296H27.75V13.6989Z" fill="#878787"/>
<path fill-rule="evenodd" clip-rule="evenodd" d="M9.86798 5.16788H14.3011C15.0739 5.16788 15.7062 5.80018 15.7062 6.57299V7.9781C15.7062 8.16077 15.6711 8.32938 15.6078 8.49097L13.4861 13.444C13.2754 13.9498 12.7766 14.3011 12.1934 14.3011H5.87044C5.09763 14.3011 4.46533 13.6688 4.46533 12.896V5.87044C4.46533 5.48403 4.61989 5.13276 4.87984 4.87984L9.50265 0.25L10.2474 0.987682C10.437 1.17737 10.5565 1.44434 10.5565 1.73239L10.5354 1.95721L9.86798 5.16788ZM3.06022 5.87044H0.25V14.3011H3.06022V5.87044Z" fill="#878787"/>
</svg>
